<svg width="1600" height="1600" xmlns="http://www.w3.org/2000/svg">

 <g>
  <title>Layer 1</title>
  <path d="m385.05411,13.85768c1.084,-0.083 2.169,-0.154 3.255,-0.213c21.228,-1.06 42.624,-0.572 63.879,-0.578l102.643,0.018l304.197,-0.119l228.75,-0.049c60.63,-0.009 116.41,-1.089 176.85,5.781c13.15,1.494 26.39,2.666 39.4,5.159c63.28,12.125 123.62,36.325 171.62,80.45c84.31,77.492 105.84,175.652 110.27,285.845c2.48,61.527 1.22,123.373 1.21,184.95l-0.04,301.264l0.07,209.79c0.02,73.2 2.26,148.8 -12.44,220.91c-12.94,63.43 -38.93,122.95 -83.38,170.71c-50.95,54.72 -122.67,87.4 -196,98.71c-28.48,4.39 -57.49,5.51 -86.25,6.57c-60.57,2.02 -121.63,0.42 -182.27,0.4l-337.786,-0.02l-202.266,0.07c-63.666,0.01 -135.232,2.05 -197.641,-10.36c-63.207,-12.57 -124.895,-39.68 -172.233,-84.06c-85.18,-79.85 -102.222,-190.22 -105.748,-301.28c-1.437,-62.31 -1.993,-124.63 -1.669,-186.96l0.373,-290.505c-0.213,-73.889 0.085,-147.778 0.895,-221.662c0.821,-69.078 0.058,-140.389 14.845,-208.257c12.887,-59.144 38.43,-114.94 80.345,-159.24c74.896,-79.158 173.376,-104.49 279.121,-107.324z" fill="rgb(36,43,58)"/>
  <path d="m1041.51973,367.68529c25.01,-0.598 50.08,-0.341 75.1,-0.428c27.79,0.352 52.31,2.407 75.45,19.547c25.46,18.865 43.99,52.098 48.46,83.321c2.2,15.329 1.4,31.597 1.41,47.068l0.01,70.318l0.01,243.506l0.09,275.36l0.12,81.62c0.03,16.33 0.88,33.32 -0.8,49.56c-1.78,17.15 -8.62,33.26 -18.99,47c-17.46,23.12 -49.08,43.3 -78.04,47.08c-15.06,1.97 -30.69,1.28 -45.86,1.26l-64.62,-0.04l-220.85,-0.04l-230.767,0.07l-69.405,0.08c-16.026,0.01 -32.462,0.63 -48.382,-1.29c-19.995,-2.41 -39.401,-11.49 -55.194,-23.84c-21.906,-17.13 -38.016,-43.06 -41.283,-70.89c-2.061,-17.55 -1.371,-35.66 -1.35,-53.32l0.026,-76.51l-0.049,-262.25l-0.013,-251.551l0.008,-76.511c0.003,-15.85 -0.752,-32.305 1.07,-48.058c2.585,-22.357 11.814,-44.952 25.978,-62.49c17.582,-21.768 40.648,-35.23 68.524,-38.153c11.633,-1.808 24.984,-0.818 36.751,-0.781l66.536,0.338c-1.49,17.506 -5.624,45.472 -13.743,60.992c-23.122,0.852 -63.601,-3.045 -83.692,1.855c-8.27,2.021 -15.915,6.05 -22.258,11.73c-10.88,9.853 -17.252,22.794 -18.08,37.52c-0.963,17.127 -0.3,34.614 -0.295,51.787l0.015,92.946l-0.01,289.236l-0.012,205.45l-0.143,62.53c-0.029,13.13 -0.586,26.57 0.717,39.63c1.196,12 7.544,24.2 15.575,33.1c12.47,13.84 26.891,17.24 44.617,18.02c42.973,1.91 86.739,0.2 129.781,0.2l256.698,0.03l162.3,0c30.03,0.01 61.53,2.01 91.33,-1.54c14.38,-1.72 28.67,-7.31 39.28,-17.37c11.94,-11.31 14.35,-23.27 14.66,-39.02c1.06,-54.58 -0.05,-109.39 -0.06,-164l-0.05,-331.774l0.04,-161.213c0.05,-24.865 2.26,-59.565 -0.98,-83.151c-1.66,-12.076 -8.46,-23.037 -16.89,-31.638c-5.76,-5.922 -13.02,-10.173 -21,-12.301c-17.18,-4.595 -69.6,-1.728 -91.04,-2.073c-5.48,-19.607 -10.05,-40.576 -10.7,-60.922z" fill="rgb(236,241,252)"/>
  <path d="m790.56973,212.12929c4.33,-0.279 8.63,-0.468 12.97,-0.253c49.25,2.449 97.64,24.48 130.62,61.213c13.6,15.278 24.24,32.963 31.35,52.146c8.45,22.367 13.79,46.012 19.88,69.095c8.63,33.054 17.61,66.012 26.96,98.869c9.26,31.522 18.82,62.951 28.7,94.284c4.36,13.647 9.75,27.048 13.62,40.829c0.96,3.44 2.4,8.204 1.82,11.731c-0.65,4.01 -2.93,7.305 -6.14,9.728c-8.85,6.682 -22.79,7.14 -33.44,5.519c-9.48,-1.442 -18.33,-5.233 -23.72,-13.501c-6.03,-9.252 -12.85,-39.587 -16.58,-51.955c-14.95,-49.04 -29.36,-98.241 -43.23,-147.594c-8.15,-29.774 -15.7,-66.005 -26.43,-94.636c-4.17,-11.256 -9.99,-21.83 -17.27,-31.372c-17.77,-23.076 -45.75,-33.566 -73.79,-37.269c-10.84,-0.52 -21.77,-0.992 -32.53,0.762c-37.05,6.043 -65.805,33.006 -79.94,66.894c-6.463,15.494 -10.267,32.382 -14.586,48.571c-5.778,21.658 -11.533,43.406 -18.039,64.855c-14.773,48.7 -33.129,96.208 -48.266,144.787c-3.245,10.411 -9.955,42.663 -18.536,47.777c-7.865,4.689 -29.405,4.826 -37.976,2.459c-8.323,-2.297 -12.476,-7.573 -16.386,-14.898c2.257,-15.277 9.359,-31.409 14.106,-46.177c9.049,-28.293 17.848,-56.665 26.396,-85.112c11.026,-36.98 21.558,-74.105 31.593,-111.366c6.596,-24.139 12.082,-48.891 20.954,-72.317c6.672,-17.923 16.169,-34.662 28.13,-49.584c29.717,-36.957 72.96,-58.558 119.76,-63.485z" fill="rgb(236,241,252)"/>
  <path d="m558.75673,820.13729c31.788,-1.02 63.829,-0.22 95.641,-0.23l177.752,0l141.85,0.01c24.87,0 50.19,-0.97 75.01,0.26c4.89,0.25 8.83,0.59 12.99,3.48c6.68,4.63 10.39,13.1 11.71,20.89c1.57,9.22 -0.42,19.53 -6.09,27.09c-4.6,6.15 -10.06,8.52 -17.43,9.72c-24.76,1.17 -49.94,0.22 -74.76,0.21l-142.68,-0.06l-171.633,0.01c-30.906,0.02 -62.054,0.81 -92.94,-0.15c-5.577,-0.17 -15.293,0.13 -20.083,-2.81c-6.153,-3.78 -9.904,-11.58 -11.644,-18.31c-2.633,-10.19 -0.153,-21.49 5.594,-30.3c4.096,-6.28 9.636,-8.44 16.713,-9.81z" fill="rgb(236,241,252)"/>
  <path d="m792.73973,369.11329c6.76,-0.212 14.85,-0.98 21.02,2.155c4.57,2.322 5.99,6.914 7.76,11.379c5.19,13.137 8.99,27.032 13.47,40.449l28.37,84.398c16.25,48.044 34.75,95.8 49.73,144.196c-14.82,1.146 -38.77,5.934 -52.49,-0.445c-14.52,-6.748 -20.3,-31.323 -25.57,-45.095c-5.26,-13.516 -10.79,-26.931 -16.56,-40.238c-40.432,-0.95 -81.186,0.016 -121.644,0.055c2.759,-12.434 10.826,-48.351 18.776,-56.261c2.944,-2.93 6.456,-4.626 10.503,-5.453c9.788,-1.999 21.833,-0.402 31.877,-0.255c13.418,0.118 26.838,0.076 40.258,-0.126c-6.37,-25.863 -15.71,-51.652 -23.533,-77.144c-3.374,-10.99 -7.717,-22.378 -9.025,-33.827c-0.683,-5.974 -0.57,-10.46 3.486,-15.24c5.769,-6.798 15.302,-7.656 23.572,-8.548z" fill="rgb(3,219,251)"/>
  <path d="m563.38573,1009.22729c60.154,-1.78 120.783,-0.32 180.988,-0.31l70.006,0.03c13.39,0.01 27.24,-0.66 40.57,0.64c6.38,0.62 12.28,1.36 17.3,5.69c6.09,5.25 9.1,13.38 9.74,21.23c0.75,9.32 -1.68,17.17 -7.9,24.23c-5.54,6.29 -12.05,8.41 -20.19,9.03l-200.709,0.18l-61.495,0.02c-12.2,0 -25.083,0.79 -37.165,-0.89c-3.569,-0.5 -6.815,-2.21 -9.582,-4.48c-6.58,-5.4 -10.218,-14.38 -10.755,-22.73c-0.534,-8.3 1.824,-17.59 7.516,-23.84c6.07,-6.68 13.117,-8.22 21.676,-8.8z" fill="rgb(236,241,252)"/>
  <path d="m1347.66973,1226.75729c29.24,-4.94 56.92,14.81 61.77,44.05c4.86,29.25 -14.96,56.88 -44.22,61.65c-29.15,4.76 -56.65,-14.96 -61.49,-44.1c-4.83,-29.14 14.82,-56.69 43.94,-61.6z" fill="rgb(3,219,251)"/>
 </g>
</svg>